<mxfile host="app.diagrams.net" modified="2024-04-24T19:11:12.424Z" agent="Mozilla/5.0 (Windows NT 10.0; Win64; x64) AppleWebKit/537.36 (KHTML, like Gecko) Chrome/124.0.0.0 Safari/537.36" etag="08yT6bVxhV7F9kzch7CT" version="24.3.0" type="github">
  <diagram name="Page-1" id="mV1qP1kzvMr_AGbJ9KCR">
    <mxGraphModel dx="1467" dy="710" grid="1" gridSize="10" guides="1" tooltips="1" connect="1" arrows="1" fold="1" page="1" pageScale="1" pageWidth="1169" pageHeight="827" math="0" shadow="0">
      <root>
        <mxCell id="0" />
        <mxCell id="1" parent="0" />
      </root>
    </mxGraphModel>
  </diagram>
</mxfile>
